<?xml version="1.0" encoding="UTF-8"?>
<svg id="Layer_1" data-name="Layer 1" xmlns="http://www.w3.org/2000/svg" viewBox="0 0 743.82 277.77">
  <defs>
    <style>
      .cls-1 {
        letter-spacing: 0em;
      }

      .cls-2 {
        letter-spacing: -.04em;
      }

      .cls-3 {
        letter-spacing: 0em;
      }

      .cls-4, .cls-5 {
        fill: #0d98ba;
      }

      .cls-6 {
        letter-spacing: 0em;
      }

      .cls-5 {
        font-family: MyriadPro-Regular, 'Myriad Pro';
        font-size: 110.1px;
      }
    </style>
  </defs>
  <g>
    <rect class="cls-4" x="39.8" y="78.12" width="80.38" height="14.13" rx="4.43" ry="4.43"/>
    <rect class="cls-4" x="15.54" y="112.64" width="104.64" height="14.13" rx="4.43" ry="4.43"/>
    <rect class="cls-4" x="39.8" y="147.96" width="80.38" height="14.13" rx="4.43" ry="4.43"/>
    <rect class="cls-4" x="0" y="147.73" width="25.95" height="14.37" rx="4.5" ry="4.5"/>
    <rect class="cls-4" x="35.63" y="183.29" width="25.95" height="11.02" rx="3.45" ry="3.45"/>
    <rect class="cls-4" x="78.14" y="182.49" width="42.05" height="13.69" rx="4.29" ry="4.29"/>
    <path class="cls-4" d="M121.89,36.57c-.16-2.15-.31-5.25-.25-9,.12-6.69,.21-10.17,1.78-14.1,.85-2.12,2.54-5.41,6.15-8.76,7.83-2.16,64.3-16.74,116.72,19.49,56.23,38.87,59.57,102.88,59.8,109.7,.25,7.47,1.22,68.76-49.59,111.5-49.89,41.98-108.79,31.65-116.39,30.18-10.96-5.93-15.13-12.46-16.82-17.59-3.1-9.42,.7-18.56-5.19-23.97-2.45-2.25-5.54-2.9-7.74-3.11-12.69,.07-25.38,.14-38.07,.21-3.72-.86-6.29-4.25-6.11-7.93,.17-3.42,2.67-6.38,6.11-7.16,24.18-.15,48.35-.3,72.53-.44,.95,0,6.45-.15,10.7-4.67,4.4-4.68,4.05-10.42,3.97-11.34,.11-11.64,.23-23.28,.34-34.92,.25-1.02,1.67-6.45,7.01-9.54,3.66-2.11,7.23-2.01,8.64-1.89,12.64-.05,25.28-.1,37.92-.15,8.33-.52,14.91-7.51,14.93-15.84,.02-8.36-6.57-15.39-14.93-15.91-13.69-.54-27.38-1.09-41.06-1.63-6.78-1.15-11.96-6.42-12.76-12.67-.95-7.46,4.5-15.01,12.76-16.56,14.57,0,29.14-.02,43.71-.03,7.84-2.5,12.86-10.04,12.12-17.81-.65-6.88-5.68-12.79-12.62-14.73-47.76,.15-95.52,.29-143.28,.44-3.68-.64-6.39-3.85-6.4-7.58-.01-3.74,2.7-6.99,6.4-7.64,13.27-.03,26.54-.06,39.81-.1,.92,.01,4.01-.06,6.77-2.33,1.8-1.48,2.64-3.22,3.01-4.15Z"/>
  </g>
  <text class="cls-5" transform="translate(332.48 179.28)"><tspan class="cls-2" x="0" y="0">F</tspan><tspan class="cls-6" x="48.67" y="0">ast </tspan><tspan class="cls-1" x="205.12" y="0">C</tspan><tspan class="cls-6" x="268.21" y="0">a</tspan><tspan class="cls-3" x="321.28" y="0">r</tspan><tspan class="cls-6" x="356.18" y="0">e</tspan></text>
</svg>