<svg width="87" height="79" viewBox="0 0 87 79" fill="none" xmlns="http://www.w3.org/2000/svg">
<path d="M32.8218 22.1521H12.5418C11.848 22.1521 11.2856 22.7145 11.2856 23.4083V24.9026C11.2856 25.5964 11.848 26.1588 12.5418 26.1588H32.8218C33.5156 26.1588 34.078 25.5964 34.078 24.9026V23.4083C34.078 22.7145 33.5156 22.1521 32.8218 22.1521Z" fill="#0D98BA"/>
<path d="M32.8217 31.9406H5.66265C4.9689 31.9406 4.40649 32.503 4.40649 33.1967V34.6911C4.40649 35.3848 4.9689 35.9472 5.66265 35.9472H32.8217C33.5155 35.9472 34.0779 35.3848 34.0779 34.6911V33.1967C34.0779 32.503 33.5155 31.9406 32.8217 31.9406Z" fill="#0D98BA"/>
<path d="M32.8218 41.9558H12.5418C11.848 41.9558 11.2856 42.5182 11.2856 43.212V44.7063C11.2856 45.4001 11.848 45.9625 12.5418 45.9625H32.8218C33.5156 45.9625 34.078 45.4001 34.078 44.7063V43.212C34.078 42.5182 33.5156 41.9558 32.8218 41.9558Z" fill="#0D98BA"/>
<path d="M6.0823 41.8906H1.27601C0.571288 41.8906 0 42.4619 0 43.1666V44.6893C0 45.3941 0.571288 45.9653 1.27601 45.9653H6.0823C6.78702 45.9653 7.35831 45.3941 7.35831 44.6893V43.1666C7.35831 42.4619 6.78702 41.8906 6.0823 41.8906Z" fill="#0D98BA"/>
<path d="M16.4831 51.9739H11.0813C10.541 51.9739 10.103 52.4119 10.103 52.9522V54.1204C10.103 54.6607 10.541 55.0987 11.0813 55.0987H16.4831C17.0233 55.0987 17.4613 54.6607 17.4613 54.1204V52.9522C17.4613 52.4119 17.0233 51.9739 16.4831 51.9739Z" fill="#0D98BA"/>
<path d="M32.8643 51.7471H23.3737C22.7019 51.7471 22.1572 52.2917 22.1572 52.9635V54.4125C22.1572 55.0843 22.7019 55.629 23.3737 55.629H32.8643C33.5362 55.629 34.0808 55.0843 34.0808 54.4125V52.9635C34.0808 52.2917 33.5362 51.7471 32.8643 51.7471Z" fill="#0D98BA"/>
<path d="M34.5629 10.3704C34.5175 9.76071 34.475 8.88168 34.492 7.81834C34.526 5.92134 34.5515 4.93457 34.9967 3.82019C35.2377 3.21905 35.7169 2.28614 36.7406 1.33623C38.9608 0.723743 54.9733 -3.41052 69.8374 6.86275C85.7818 17.8846 86.7289 36.0351 86.7941 37.969C86.865 40.0871 87.14 57.4663 72.7325 69.5856C58.5858 81.4893 41.8843 78.5602 39.7293 78.1433C36.6215 76.4618 35.439 74.6102 34.9598 73.1556C34.0808 70.4845 35.1583 67.8927 33.4882 66.3587C32.7935 65.7207 31.9173 65.5364 31.2934 65.4768C27.6951 65.4967 24.0968 65.5165 20.4984 65.5364C19.4436 65.2925 18.7148 64.3313 18.7659 63.2878C18.8141 62.318 19.523 61.4787 20.4984 61.2575C27.3548 61.215 34.2084 61.1724 41.0648 61.1327C41.3342 61.1327 42.8938 61.0902 44.0989 59.8085C45.3465 58.4815 45.2473 56.8539 45.2246 56.593C45.2558 53.2924 45.2898 49.9918 45.321 46.6912C45.3919 46.402 45.7945 44.8622 47.3087 43.986C48.3466 43.3877 49.3589 43.4161 49.7587 43.4501C53.3428 43.4359 56.927 43.4218 60.5112 43.4076C62.8732 43.2601 64.739 41.2781 64.7447 38.916C64.7503 36.5455 62.8817 34.5521 60.5112 34.4047C56.6293 34.2515 52.7474 34.0956 48.8683 33.9425C46.9458 33.6164 45.477 32.122 45.2501 30.3498C44.9807 28.2345 46.5261 26.0936 48.8683 25.6541C52.9997 25.6541 57.1312 25.6484 61.2626 25.6456C63.4857 24.9367 64.9091 22.7987 64.6993 20.5954C64.515 18.6446 63.0887 16.9687 61.1208 16.4186C47.5781 16.4612 34.0354 16.5009 20.4927 16.5434C19.4493 16.3619 18.6808 15.4517 18.678 14.394C18.6752 13.3335 19.4436 12.412 20.4927 12.2277C24.2556 12.2191 28.0184 12.2106 31.7812 12.1993C32.042 12.2021 32.9182 12.1823 33.7008 11.5386C34.2112 11.1189 34.4494 10.6256 34.5543 10.3618L34.5629 10.3704Z" fill="#0D98BA"/>
</svg>
